<svg viewBox="0 0 64 64" xmlns="http://www.w3.org/2000/svg"><g id="Finger_Drag" fill="#001523" data-name="Finger Drag"><path d="m47.213 28.006a3.959 3.959 0 0 0 -2.255.553 4.056 4.056 0 0 0 -3.745-3.553 3.947 3.947 0 0 0 -2.255.553 4.056 4.056 0 0 0 -3.745-3.553 3.945 3.945 0 0 0 -2.213.527v-11.363a4.089 4.089 0 0 0 -3.787-4.164 3.956 3.956 0 0 0 -2.966 1.094 4.02 4.02 0 0 0 -1.247 2.9v18.991l-.356-1.4v-.006a4 4 0 0 0 -7.3-1.1 3.948 3.948 0 0 0 -.47 2.984l1.526 7.631c.282 1.4.467 2.867.646 4.281l.086.675a16.094 16.094 0 0 0 15.891 13.944c.248 0 .5-.006.749-.018a16.2 16.2 0 0 0 15.228-16.406v-8.406a4.089 4.089 0 0 0 -3.787-4.164zm1.787 12.57a14 14 0 0 1 -27.885 2.224l-.086-.672c-.183-1.449-.373-2.947-.669-4.423l-1.543-7.687a2 2 0 0 1 1.464-2.42 2 2 0 0 1 2.419 1.472l1.382 5.448.3 1.19.644 2.535a1 1 0 0 0 1.974-.243v-27a2 2 0 0 1 2.109-2 2.119 2.119 0 0 1 1.891 2.17v21.83a1 1 0 0 0 2 0v-7a1.982 1.982 0 0 1 .624-1.451 1.962 1.962 0 0 1 1.485-.549 2.119 2.119 0 0 1 1.891 2.17v7.83a1 1 0 0 0 2 0v-5a2 2 0 0 1 2.109-2 2.119 2.119 0 0 1 1.891 2.17v5.83a1 1 0 0 0 2 0v-3a2 2 0 0 1 2.109-2 2.119 2.119 0 0 1 1.891 2.17z"/><path d="m35 15h9.586l-2.293 2.293a1 1 0 1 0 1.414 1.414l4-4a1.108 1.108 0 0 0 0-1.414l-4-4a1 1 0 0 0 -1.414 1.414l2.293 2.293h-9.586a1 1 0 0 0 0 2z"/><path d="m13.414 15h9.586a1 1 0 0 0 0-2h-9.586l2.293-2.293a1 1 0 0 0 -1.414-1.414l-4 4a1.108 1.108 0 0 0 0 1.414l4 4a1 1 0 0 0 1.414-1.414z"/></g></svg>